<svg width="54" height="54" viewBox="0 0 54 54" fill="none" xmlns="http://www.w3.org/2000/svg">
<path d="M6.75 47.2501L10.4625 38.7001C7.62224 34.6682 6.351 29.7384 6.88735 24.8359C7.4237 19.9333 9.73077 15.3949 13.3756 12.0725C17.0204 8.75014 21.7524 6.87209 26.6836 6.79084C31.6148 6.70958 36.4061 8.4307 40.1584 11.6312C43.9107 14.8317 46.3661 19.2916 47.0637 24.1738C47.7612 29.0561 46.6531 34.0251 43.9472 38.1483C41.2414 42.2716 37.1237 45.2657 32.3671 46.5686C27.6105 47.8716 22.5419 47.3938 18.1125 45.2251L6.75 47.2501Z" stroke="black" stroke-width="2" stroke-linecap="round" stroke-linejoin="round"/>
<path d="M20.25 22.5C20.25 22.7984 20.3685 23.0845 20.5795 23.2955C20.7905 23.5065 21.0766 23.625 21.375 23.625C21.6734 23.625 21.9595 23.5065 22.1705 23.2955C22.3815 23.0845 22.5 22.7984 22.5 22.5V20.25C22.5 19.9516 22.3815 19.6655 22.1705 19.4545C21.9595 19.2435 21.6734 19.125 21.375 19.125C21.0766 19.125 20.7905 19.2435 20.5795 19.4545C20.3685 19.6655 20.25 19.9516 20.25 20.25V22.5ZM20.25 22.5C20.25 25.4837 21.4353 28.3452 23.545 30.455C25.6548 32.5647 28.5163 33.75 31.5 33.75M31.5 33.75H33.75C34.0484 33.75 34.3345 33.6315 34.5455 33.4205C34.7565 33.2095 34.875 32.9234 34.875 32.625C34.875 32.3266 34.7565 32.0405 34.5455 31.8295C34.3345 31.6185 34.0484 31.5 33.75 31.5H31.5C31.2016 31.5 30.9155 31.6185 30.7045 31.8295C30.4935 32.0405 30.375 32.3266 30.375 32.625C30.375 32.9234 30.4935 33.2095 30.7045 33.4205C30.9155 33.6315 31.2016 33.75 31.5 33.75Z" stroke="black" stroke-width="2" stroke-linecap="round" stroke-linejoin="round"/>
</svg>
